<?xml version="1.0" standalone="no"?>
<!DOCTYPE svg PUBLIC "-//W3C//DTD SVG 20010904//EN" "http://www.w3.org/TR/2001/REC-SVG-20010904/DTD/svg10.dtd">
<!-- Created using Karbon14, part of koffice: http://www.koffice.org/karbon -->
<svg xmlns="http://www.w3.org/2000/svg" xmlns:xlink="http://www.w3.org/1999/xlink" width="274px" height="313px">
  <defs>
  </defs>
  <g id="Layer">
  </g>
  <g id="Layer">
    <path fill="#98bf00" d="M272.637 235.84L275.133 222.195L262.238 222.195L265.988 202.105L250.543 208.152L248.047 222.195L238.648 222.195L236.148 235.84L245.395 235.84L242.246 253.133C242.098 254.082 241.848 255.484 241.598 257.281C241.348 259.082 241.199 260.68 241.199 262.031C241.246 268.277 242.746 273.426 245.695 277.473C248.645 281.621 253.441 284.07 260.141 284.82L266.586 271.527C263.141 271.078 260.539 269.727 258.691 267.43C256.84 265.078 255.941 262.129 255.941 258.531C255.941 257.832 256.043 256.832 256.191 255.484C256.344 254.133 256.492 253.035 256.641 252.184L259.641 235.84L272.637 235.84L272.637 235.84Z"  />
    <path fill="#98bf00" d="M213.707 220.746C211.109 219.695 208.262 219.148 205.211 219.148C200.766 219.148 196.617 220.148 192.867 222.098C189.07 224.047 185.82 226.742 183.172 230.191C180.422 233.59 178.324 237.539 176.773 242.039C175.223 246.637 174.473 251.535 174.473 256.684C174.473 261.18 175.074 265.18 176.223 268.676C177.375 272.176 179.023 275.125 181.121 277.473C183.172 279.871 185.719 281.672 188.668 282.922C191.617 284.172 194.918 284.82 198.516 284.82C202.863 284.82 207.16 284.019 211.461 282.422C215.809 280.824 219.605 278.324 222.855 274.977L217.457 262.481C214.957 265.277 212.211 267.379 209.16 268.828C206.113 270.277 203.062 270.977 200.062 270.977C196.566 270.977 193.816 269.875 191.816 267.676C189.867 265.43 188.867 262.629 188.867 259.332L188.867 258.383C188.867 257.981 188.918 257.582 189.02 257.184C191.668 256.832 194.668 256.383 198.016 255.781C201.363 255.184 204.762 254.484 208.211 253.684C211.66 252.832 215.008 251.883 218.309 250.883C221.555 249.887 224.453 248.836 226.902 247.785L226.902 242.039C226.902 238.488 226.355 235.289 225.254 232.441C224.105 229.691 222.605 227.293 220.656 225.246C218.707 223.246 216.359 221.746 213.707 220.746L213.707 220.746ZM198.414 231.941C199.965 231.094 201.715 230.691 203.664 230.691C206.312 230.691 208.512 231.543 210.262 233.293C212.008 234.992 212.91 237.539 212.91 240.988C211.461 241.438 209.762 241.988 207.762 242.539C205.711 243.039 203.664 243.539 201.562 243.988C199.414 244.438 197.367 244.887 195.316 245.285C193.266 245.637 191.52 245.938 190.02 246.188C190.27 244.086 190.719 242.09 191.418 240.238C192.168 238.391 193.117 236.738 194.266 235.34C195.516 233.941 196.867 232.793 198.414 231.941L198.414 231.941Z"  fill-rule="evenodd" />
    <path fill="#000000" d="M228.004 296.418C227.305 295.715 226.504 295.168 225.555 294.816C224.605 294.469 223.555 294.266 222.457 294.266C221.008 294.266 219.656 294.566 218.406 295.117C217.156 295.668 216.059 296.465 215.109 297.465C214.16 298.465 213.41 299.613 212.859 300.965C212.309 302.312 212.008 303.762 212.008 305.363C212.008 306.613 212.211 307.711 212.609 308.762C212.961 309.762 213.508 310.609 214.207 311.309C214.859 312.059 215.707 312.609 216.656 313.008C217.605 313.359 218.656 313.559 219.805 313.559C221.207 313.559 222.555 313.258 223.805 312.711C225.055 312.16 226.152 311.359 227.102 310.359C228.055 309.41 228.805 308.211 229.352 306.863C229.902 305.512 230.203 304.012 230.203 302.414C230.203 301.164 230.004 300.016 229.602 299.016C229.203 298.016 228.652 297.164 228.004 296.418L228.004 296.418ZM226.355 302.613C226.355 303.562 226.203 304.512 225.902 305.461C225.652 306.363 225.254 307.16 224.703 307.863C224.156 308.562 223.504 309.109 222.754 309.562C222.004 309.961 221.156 310.16 220.258 310.16C218.809 310.16 217.758 309.711 217.008 308.859C216.258 307.961 215.859 306.762 215.859 305.211C215.859 304.262 216.008 303.312 216.309 302.363C216.609 301.465 217.008 300.664 217.508 299.965C218.059 299.266 218.707 298.715 219.457 298.266C220.207 297.816 221.008 297.617 221.957 297.617C223.406 297.617 224.453 298.066 225.203 298.965C225.953 299.816 226.355 301.062 226.355 302.613L226.355 302.613Z"  fill-rule="evenodd" />
    <path fill="#000000" d="M260.59 294.516L257.043 294.516L255.141 305.562C255.094 305.711 255.043 305.961 255.043 306.312C255.043 306.66 255.043 306.91 255.043 307.16L254.891 307.16L248.496 294.516L245.145 294.516L241.797 313.258L245.395 313.258L247.395 301.965C247.445 301.812 247.445 301.562 247.445 301.312C247.445 301.062 247.445 300.766 247.445 300.465L247.594 300.465L254.145 313.41L257.34 313.109L260.59 294.516L260.59 294.516Z"  />
    <path fill="#000000" d="M200.414 294.516L196.766 294.516L193.418 313.258L197.117 313.258L200.414 294.516L200.414 294.516Z"  />
    <path fill="#000000" d="M14.9883 238.438C14.8867 239.59 14.7383 240.488 14.5898 241.137L6.64062 283.473L21.0352 283.473L29.4844 237.789C31.5312 236.242 33.7305 235.09 36.0781 234.293C38.4805 233.441 40.5781 232.992 42.3281 232.992C44.2266 232.992 45.8242 233.543 47.125 234.641C48.375 235.691 48.9766 237.238 48.9766 239.391C48.9766 239.988 48.875 240.887 48.6758 242.137C48.4766 243.289 48.3242 244.336 48.1758 245.238L44.5781 262.129C44.3281 263.43 44.0781 264.777 43.8281 266.18C43.5781 267.629 43.4766 268.879 43.4766 269.926C43.4766 273.977 44.5781 277.375 46.8242 280.074C48.9766 282.773 52.8242 284.371 58.3711 284.82L64.7188 271.977C62.5703 271.625 61.0195 270.828 60.0703 269.578C59.0703 268.379 58.5703 266.68 58.5703 264.527C58.5703 264.027 58.6211 263.43 58.7227 262.781C58.7695 262.129 58.8711 261.582 58.9219 261.18L62.5703 243.988C62.8711 242.539 63.1172 241.09 63.3203 239.641C63.5195 238.238 63.6172 236.84 63.6172 235.492C63.6172 230.543 62.168 226.543 59.2695 223.594C56.3203 220.648 52.2227 219.148 46.9766 219.148C43.9258 219.148 41.0273 219.648 38.1797 220.648C35.3789 221.598 31.9805 223.195 28.0312 225.543C27.8828 224.594 27.5352 223.445 27.0352 222.144C26.4844 220.894 25.8828 219.797 25.2344 218.797L11.8398 224.547C12.9883 226.293 13.8906 228.144 14.4375 230.043C14.9375 231.941 15.1875 233.742 15.1875 235.391C15.1875 236.242 15.1367 237.289 14.9883 238.438L14.9883 238.438Z"  />
    <path fill="#000000" d="M6.19141 302.715L7.04297 297.914L13.6875 297.914L14.2891 294.516L3.99219 294.516L0.644531 313.258L4.34375 313.258L5.59375 306.113L12.3398 306.113L12.9375 302.715L6.19141 302.715L6.19141 302.715Z"  />
    <path fill="#98bf00" d="M127.691 222.144C127.145 220.894 126.543 219.797 125.895 218.797L112.5 224.547C113.648 226.293 114.547 228.144 115.098 230.043C115.598 231.941 115.848 233.742 115.848 235.391C115.848 236.242 115.797 237.289 115.648 238.438C115.547 239.59 115.398 240.488 115.25 241.137L107.301 283.473L121.695 283.473L130.141 237.789C132.191 236.242 134.391 235.09 136.738 234.293C139.141 233.441 141.238 232.992 142.988 232.992C144.887 232.992 146.484 233.543 147.785 234.641C149.035 235.691 149.633 237.238 149.633 239.391C149.633 239.988 149.535 240.887 149.336 242.137C149.133 243.289 148.984 244.336 148.836 245.238L145.234 262.129C144.988 263.43 144.738 264.777 144.488 266.18C144.238 267.629 144.137 268.879 144.137 269.926C144.137 273.977 145.234 277.375 147.484 280.074C149.633 282.773 153.484 284.371 159.031 284.82L165.379 271.977C163.23 271.625 161.68 270.828 160.73 269.578C159.73 268.379 159.23 266.68 159.23 264.527C159.23 264.027 159.281 263.43 159.379 262.781C159.43 262.129 159.531 261.582 159.582 261.18L163.23 243.988C163.527 242.539 163.777 241.09 163.98 239.641C164.18 238.238 164.277 236.84 164.277 235.492C164.277 230.543 162.828 226.543 159.93 223.594C156.98 220.648 152.883 219.148 147.637 219.148C144.586 219.148 141.688 219.648 138.84 220.648C136.039 221.598 132.641 223.195 128.691 225.543C128.543 224.594 128.191 223.445 127.691 222.144L127.691 222.144Z"  />
    <path fill="#000000" d="M102.852 193.508L88.707 193.508L77.914 251.984C77.4648 253.934 77.1133 255.981 76.8633 258.133C76.6133 260.231 76.4649 262.18 76.4649 263.981C76.4649 269.777 77.5625 274.523 79.8125 278.223C82.0625 281.922 85.8594 284.121 91.207 284.82L97.707 271.527C96.6563 271.027 95.7578 270.477 94.9062 269.875C94.0586 269.328 93.3555 268.578 92.8086 267.727C92.207 266.879 91.7578 265.879 91.5078 264.68C91.2578 263.481 91.1094 261.981 91.1094 260.231C91.1094 259.383 91.1562 258.43 91.2578 257.434C91.4063 256.383 91.5586 255.332 91.707 254.234L102.852 193.508L102.852 193.508Z"  />
    <path fill="#000000" d="M72.4648 294.516L68.8164 294.516L66.418 308.211C65.918 308.762 65.3164 309.211 64.5703 309.609C63.8203 309.961 63.0195 310.16 62.1211 310.16C61.2188 310.16 60.5195 309.961 60.0195 309.562C59.4688 309.109 59.2188 308.41 59.2188 307.363C59.2188 307.16 59.2695 306.863 59.3203 306.461C59.3711 306.113 59.3711 305.762 59.4219 305.461L61.418 294.516L57.7227 294.516L55.7734 305.414C55.7227 305.863 55.6719 306.312 55.6211 306.762C55.5703 307.211 55.5703 307.562 55.5703 307.91C55.5703 308.91 55.7227 309.762 56.0234 310.512C56.3203 311.262 56.7227 311.809 57.2227 312.262C57.7695 312.711 58.3711 313.059 59.0195 313.258C59.7188 313.461 60.4219 313.559 61.168 313.559C63.0195 313.559 64.668 313.008 66.168 311.859C66.168 312.109 66.168 312.41 66.2188 312.711C66.2188 312.961 66.2188 313.211 66.2695 313.461L69.918 313.211C69.8672 312.961 69.8672 312.711 69.8672 312.41C69.8164 312.16 69.8164 311.859 69.8164 311.512C69.8164 310.91 69.8672 310.262 69.918 309.609C69.9648 308.91 70.0156 308.262 70.168 307.66L72.4648 294.516L72.4648 294.516Z"  />
    <path fill="#000000" d="M102.652 294.516L99.1055 294.516L97.207 305.562C97.1562 305.711 97.1055 305.961 97.1055 306.312C97.1055 306.66 97.1055 306.91 97.1055 307.16L96.957 307.16L90.5586 294.516L87.2109 294.516L83.8594 313.258L87.4609 313.258L89.457 301.965C89.5078 301.812 89.5078 301.562 89.5078 301.312C89.5078 301.062 89.5078 300.766 89.5078 300.465L89.6602 300.465L96.207 313.41L99.4063 313.109L102.652 294.516L102.652 294.516Z"  />
    <path fill="#000000" d="M38.3789 294.816C37.4297 294.469 36.3789 294.266 35.2812 294.266C33.832 294.266 32.4805 294.566 31.2305 295.117C29.9805 295.668 28.8828 296.465 27.9336 297.465C26.9844 298.465 26.2344 299.613 25.6836 300.965C25.1328 302.312 24.8359 303.762 24.8359 305.363C24.8359 306.613 25.0352 307.711 25.4336 308.762C25.7852 309.762 26.332 310.609 27.0352 311.309C27.6836 312.059 28.5312 312.609 29.4844 313.008C30.4336 313.359 31.4805 313.559 32.6328 313.559C34.0312 313.559 35.3789 313.258 36.6289 312.711C37.8789 312.16 38.9805 311.359 39.9297 310.359C40.8789 309.41 41.6289 308.211 42.1758 306.863C42.7266 305.512 43.0273 304.012 43.0273 302.414C43.0273 301.164 42.8281 300.016 42.4258 299.016C42.0273 298.016 41.4766 297.164 40.8281 296.418C40.1289 295.715 39.3281 295.168 38.3789 294.816L38.3789 294.816ZM30.332 299.965C30.8828 299.266 31.5312 298.715 32.2812 298.266C33.0312 297.816 33.832 297.617 34.7812 297.617C36.2305 297.617 37.2812 298.066 38.0273 298.965C38.7773 299.816 39.1797 301.062 39.1797 302.613C39.1797 303.562 39.0273 304.512 38.7305 305.461C38.4805 306.363 38.0781 307.16 37.5312 307.863C36.9805 308.562 36.3281 309.109 35.582 309.562C34.832 309.961 33.9805 310.16 33.082 310.16C31.6328 310.16 30.582 309.711 29.832 308.859C29.082 307.961 28.6836 306.762 28.6836 305.211C28.6836 304.262 28.832 303.312 29.1328 302.363C29.4336 301.465 29.832 300.664 30.332 299.965L30.332 299.965Z"  fill-rule="evenodd" />
    <path fill="#000000" d="M147.285 308.062L153.781 308.062C153.832 308.512 153.832 308.961 153.883 309.461L154.031 310.91C154.082 311.359 154.133 311.809 154.184 312.262C154.234 312.711 154.234 313.059 154.234 313.41L157.93 313.109C157.93 312.41 157.883 311.609 157.781 310.66C157.73 309.711 157.582 308.711 157.43 307.66C157.281 306.613 157.133 305.461 156.93 304.312C156.781 303.164 156.582 302.016 156.332 300.863C156.133 299.715 155.934 298.617 155.684 297.516C155.434 296.465 155.23 295.465 154.98 294.516L150.734 294.516C149.934 295.867 149.086 297.414 148.137 299.066C147.184 300.715 146.285 302.414 145.387 304.113C144.488 305.812 143.688 307.461 142.938 309.062C142.188 310.66 141.586 312.059 141.137 313.258L144.988 313.258C145.137 312.91 145.285 312.461 145.484 312.012C145.688 311.559 145.887 311.059 146.137 310.609C146.336 310.16 146.535 309.711 146.734 309.262C146.938 308.812 147.137 308.41 147.285 308.062L147.285 308.062ZM152.332 298.566C152.434 298.965 152.535 299.465 152.633 300.066C152.734 300.613 152.832 301.215 152.934 301.863C153.031 302.465 153.133 303.062 153.184 303.613C153.281 304.164 153.332 304.562 153.383 304.914L148.734 304.914C148.984 304.465 149.234 303.965 149.484 303.414C149.785 302.863 150.086 302.266 150.383 301.664C150.734 301.062 151.035 300.516 151.332 299.965C151.633 299.414 151.883 298.914 152.133 298.566L152.332 298.566L152.332 298.566Z"  fill-rule="evenodd" />
    <path fill="#000000" d="M184.219 294.516L171.426 294.516L170.875 297.914L175.426 297.914L172.773 313.258L176.422 313.258L179.121 297.914L183.672 297.914L184.219 294.516L184.219 294.516Z"  />
    <path fill="#000000" d="M123.496 294.266C122.445 294.266 121.395 294.316 120.348 294.418C119.297 294.566 118.297 294.719 117.348 294.965L114.199 312.809C115.148 313.059 116.246 313.211 117.449 313.359C118.598 313.508 119.695 313.559 120.746 313.559C122.297 313.559 123.695 313.309 125.043 312.809C126.395 312.262 127.594 311.559 128.594 310.609C129.594 309.66 130.391 308.512 130.992 307.16C131.543 305.812 131.84 304.262 131.84 302.562C131.84 301.215 131.641 300.066 131.242 299.016C130.793 297.965 130.242 297.117 129.492 296.418C128.742 295.715 127.844 295.168 126.844 294.816C125.793 294.469 124.695 294.266 123.496 294.266L123.496 294.266ZM121.645 297.715C122.094 297.664 122.445 297.664 122.695 297.664C123.445 297.664 124.145 297.766 124.793 297.914C125.445 298.066 125.992 298.367 126.445 298.766C126.945 299.164 127.344 299.664 127.594 300.316C127.844 300.914 127.992 301.664 127.992 302.613C127.992 303.812 127.844 304.863 127.492 305.812C127.195 306.762 126.742 307.562 126.145 308.211C125.543 308.859 124.844 309.312 123.996 309.66C123.145 310.012 122.246 310.16 121.195 310.16C120.746 310.16 120.297 310.16 119.746 310.109C119.195 310.062 118.695 310.012 118.348 309.961L120.496 297.867C120.797 297.816 121.195 297.766 121.645 297.715L121.645 297.715Z"  fill-rule="evenodd" />
    <path fill="#98bf00" d="M193.918 56.812C193.016 56.664 192.117 56.512 191.219 56.414C190.316 56.262 189.418 56.164 188.52 56.113C183.473 55.762 178.621 56.262 174.074 57.562C168.727 59.062 163.629 61.66 158.879 65.359C154.133 69.059 150.434 73.305 147.684 78.152C145.336 82.301 143.688 86.852 142.836 91.797C147.535 92.598 151.934 93.996 155.98 95.996C156.23 94.047 156.684 92.199 157.23 90.449C158.98 84.801 162.379 80.004 167.328 76.156C172.277 72.305 177.723 70.156 183.672 69.758C185.57 69.605 187.52 69.707 189.57 69.957C189.617 69.957 189.668 69.957 189.719 69.957C197.863 71.008 204.512 74.805 209.609 81.352C214.707 87.898 216.758 95.246 215.758 103.492C214.758 111.738 210.961 118.438 204.414 123.586C197.863 128.684 190.52 130.734 182.371 129.734C183.32 134.18 183.57 138.777 183.223 143.629C194.168 144.328 204.012 141.227 212.809 134.383C222.355 126.934 227.852 117.188 229.352 105.242C230.801 93.199 227.805 82.453 220.355 72.906C213.508 64.059 204.664 58.711 193.918 56.812L193.918 56.812Z"  />
    <path fill="#98bf00" d="M185.27 50.613C185.32 50.113 185.422 49.613 185.469 49.164C186.918 37.168 183.973 26.426 176.523 16.879C169.078 7.332 159.332 1.836 147.336 0.336C135.34 -1.113 124.594 1.883 115.047 9.332C106.25 16.18 100.902 25.023 98.9531 35.77C98.8047 36.672 98.6562 37.57 98.5547 38.52C98.4062 39.367 98.3555 40.27 98.3047 41.168C97.957 46.215 98.4062 51.016 99.7031 55.613C101.203 60.961 103.805 66.059 107.5 70.805C111.25 75.555 115.5 79.305 120.348 82.051C124.496 84.402 129.043 86 133.992 86.898C134.84 87.051 135.738 87.148 136.641 87.301C137.141 87.352 137.641 87.398 138.141 87.449C139.34 82.551 141.238 78.055 143.785 73.957C142.086 74.004 140.34 73.957 138.59 73.754C138.488 73.754 138.391 73.754 138.34 73.754C136.34 73.504 134.441 73.055 132.59 72.504C126.945 70.707 122.145 67.309 118.297 62.359C114.398 57.41 112.301 51.965 111.949 46.066C111.801 44.168 111.898 42.219 112.148 40.219C112.148 40.117 112.148 40.02 112.148 39.969C113.199 31.82 116.996 25.176 123.496 20.125C130.043 14.98 137.438 12.93 145.688 13.98C153.934 14.98 160.582 18.777 165.727 25.324C170.875 31.871 172.926 39.27 171.926 47.516C171.676 49.363 171.324 51.164 170.824 52.863C175.426 51.363 180.223 50.613 185.27 50.613L185.27 50.613Z"  />
    <path fill="#000000" d="M199.414 101.496C199.863 97.746 198.965 94.398 196.617 91.449C194.266 88.449 191.27 86.699 187.52 86.25C183.77 85.801 180.371 86.75 177.422 89.098C174.426 91.398 172.676 94.398 172.227 98.145C171.777 101.895 172.727 105.293 175.074 108.293C177.375 111.242 180.422 112.988 184.172 113.438C187.918 113.891 191.27 112.988 194.266 110.641C197.215 108.293 198.965 105.242 199.414 101.496L199.414 101.496Z"  />
    <path fill="#000000" d="M133.641 33.07C130.641 35.371 128.895 38.418 128.441 42.219C127.992 45.918 128.941 49.266 131.293 52.266C133.641 55.262 136.641 57.012 140.387 57.461C144.137 57.91 147.484 56.961 150.484 54.613C153.434 52.266 155.184 49.266 155.633 45.516C156.082 41.77 155.184 38.371 152.832 35.422C150.484 32.422 147.484 30.723 143.738 30.273C139.988 29.773 136.59 30.723 133.641 33.07L133.641 33.07Z"  />
    <path fill="#98bf00" d="M71.7656 60.562C78.2617 55.461 85.6094 53.414 93.7578 54.414C92.8086 49.965 92.5586 45.316 92.9062 40.52C81.9609 39.77 72.1172 42.867 63.3203 49.766C53.7734 57.211 48.2266 66.906 46.7773 78.902C45.3281 90.898 48.3242 101.695 55.7734 111.242C62.6211 120.035 71.4648 125.383 82.2109 127.332C83.0625 127.484 83.961 127.633 84.9102 127.734C85.8086 127.832 86.711 127.934 87.6094 128.035C92.6562 128.332 97.457 127.832 102.055 126.586C107.402 125.086 112.5 122.484 117.246 118.789C121.996 115.039 125.695 110.789 128.441 105.992C130.793 101.844 132.441 97.297 133.34 92.348C128.594 91.5 124.195 90.098 120.145 88.148C119.895 90.098 119.496 91.949 118.945 93.699C117.148 99.344 113.75 104.094 108.801 107.992C103.852 111.84 98.4062 113.988 92.5078 114.391C90.5586 114.488 88.6094 114.438 86.6094 114.188C86.5586 114.188 86.4609 114.188 86.4102 114.141C78.2617 113.09 71.6172 109.293 66.5664 102.793C61.418 96.246 59.3711 88.848 60.3711 80.652C61.418 72.406 65.2188 65.707 71.7656 60.562L71.7656 60.562Z"  />
    <path fill="#000000" d="M91.957 70.707C88.2109 70.258 84.8594 71.156 81.8633 73.504C78.8633 75.855 77.1641 78.902 76.7148 82.652C76.2656 86.352 77.1641 89.699 79.5117 92.699C81.8633 95.648 84.8594 97.395 88.6094 97.895C92.3555 98.344 95.707 97.395 98.7031 95.047C101.703 92.699 103.453 89.699 103.902 86C104.352 82.203 103.402 78.805 101.105 75.855C98.7539 72.855 95.707 71.156 91.957 70.707L91.957 70.707Z"  />
    <path fill="#98bf00" d="M90.8594 133.531C90.7578 133.98 90.707 134.48 90.6562 134.98C89.1602 146.977 92.1562 157.723 99.6055 167.27C107.051 176.812 116.746 182.312 128.793 183.812C140.738 185.262 151.535 182.262 161.078 174.816C169.875 167.918 175.223 159.121 177.172 148.375C177.324 147.477 177.473 146.574 177.574 145.625C177.672 144.727 177.773 143.828 177.824 142.977C178.172 137.93 177.672 133.082 176.422 128.535C174.926 123.184 172.324 118.086 168.625 113.34C164.879 108.59 160.629 104.844 155.832 102.094C151.684 99.746 147.086 98.094 142.137 97.246C141.289 97.098 140.387 96.945 139.488 96.848C138.988 96.797 138.488 96.746 137.988 96.695C136.738 101.543 134.891 106.043 132.34 110.191C134.039 110.09 135.789 110.141 137.59 110.391C137.641 110.391 137.738 110.391 137.789 110.391C139.789 110.641 141.688 111.039 143.535 111.641C149.184 113.438 153.984 116.84 157.832 121.785C161.68 126.734 163.828 132.133 164.18 138.078C164.277 139.98 164.23 141.93 163.98 143.926C163.98 143.977 163.98 144.078 163.98 144.176C162.93 152.324 159.129 158.973 152.633 164.02C146.086 169.168 138.688 171.215 130.441 170.168C122.195 169.168 115.5 165.367 110.398 158.82C105.254 152.273 103.203 144.875 104.254 136.629C104.453 134.781 104.801 132.98 105.352 131.281C100.703 132.781 95.9062 133.531 90.8594 133.531L90.8594 133.531Z"  />
    <path fill="#000000" d="M123.297 148.727C125.645 151.723 128.645 153.422 132.391 153.875C136.141 154.324 139.539 153.422 142.539 151.074C145.484 148.727 147.234 145.676 147.684 141.93C148.137 138.18 147.184 134.832 144.887 131.883C142.539 128.883 139.488 127.133 135.738 126.684C131.992 126.234 128.645 127.184 125.645 129.531C122.645 131.832 120.945 134.832 120.496 138.578C120.047 142.328 120.945 145.727 123.297 148.727L123.297 148.727Z"  />
  </g>
</svg>
