<svg xmlns="http://www.w3.org/2000/svg" xmlns:xlink="http://www.w3.org/1999/xlink" xml:space="preserve" width="32" height="32" viewBox="0 0 8.467 8.467"><defs><linearGradient id="a"><stop offset="0" style="stop-color:#c358f8;stop-opacity:1"/><stop offset="1" style="stop-color:#7835ff;stop-opacity:1"/></linearGradient><linearGradient id="b"><stop offset="0" style="stop-color:#b550fa;stop-opacity:1"/><stop offset="1" style="stop-color:#f2a0af;stop-opacity:1"/></linearGradient><linearGradient xlink:href="#a" id="c" x1="233.208" x2="235.371" y1="155.572" y2="159.662" gradientTransform="translate(-19.216 42.773)" gradientUnits="userSpaceOnUse"/><linearGradient xlink:href="#b" id="d" x1="238.321" x2="236.355" y1="154.077" y2="159.465" gradientTransform="translate(-20.99 42.773)" gradientUnits="userSpaceOnUse"/></defs><path d="m214.848 198.342-.695.006c-.293 0-.39.184-.319.449l.64 2.845c.142.526.236.62.332.62h.186c.366 0 .496-.22.639-.62l1.012-2.845h-1.333c-.095-.213-.128-.454-.462-.454z" style="fill:url(#c);fill-opacity:1;stroke:none;stroke-width:.0964889" transform="matrix(1.62214 0 0 1.56333 -346.8341306 -307.73622782)"/><path d="M217.08 196.846h1.631c.131 0 .403.074.296.387l-1.356 4.547c-.14.393-.268.482-.68.482h-2.165c.113 0 .232-.22.375-.62l1.289-4.36c.094-.25.22-.436.61-.436z" style="fill:url(#d);fill-opacity:1;stroke:none;stroke-width:.0964889" transform="matrix(1.62214 0 0 1.56333 -346.8341306 -307.73622782)"/></svg>