<svg xmlns="http://www.w3.org/2000/svg" xml:space="preserve" width="40.125" height="47"><path d="M18.894531 0A15.275 15.275 0 0 0 3.6191406 15.275391H36.519531A15.275 15.275 0 0 0 21.244141 0h-2.34961zM3.6191406 16.449219V16.5a1.554 1.554 0 0 0-1.1757812 1.503906v7a1.554 1.554 0 0 0 1.1757812 1.501953v9.919922H36.519531v-9.916015a1.554 1.554 0 0 0 1.173828-1.50586v-7A1.554 1.554 0 0 0 36.519531 16.5v-.050781H3.6191406z" style="fill:#aeaff7;fill-opacity:1"/><path d="M25.931641.85546875a1.366 1.366 0 0 0-.958985 2.23242185 15.2 15.2 0 0 1 3.332032 6.9570314 2.461 2.461 0 0 1-2.445313 2.882812H5.9472656A2.329 2.329 0 0 0 3.6191406 15.25v.025391H36.519531a15.271 15.271 0 0 0-10-14.3300785 1.366 1.366 0 0 0-.58789-.08984375zM19.433594 24.765625a8.182 8.182 0 0 0-4.634766 1.898437l-8.0351561 6.763672-3.140625-6.957031A6.15 6.15 0 0 0 .546875 34.605469l3.5644531 7.90039L9.71875 39.976562l-2.1542969-4.77539.7539063.683594 19.6933596 3.455078L32.75 34.75l-2.341797 5.1875 5.607422 2.529297 3.564453-7.900391a6.15 6.15 0 0 0-3.076172-8.134765l-3.152344 6.984375-8.011718-6.751954a8.182 8.182 0 0 0-5.90625-1.898437z" style="fill:#6166ef;fill-opacity:1"/><path fill="#f5f5f5" d="M36.519 16.45h-32.9v1.63a12.877 12.877 0 0 0 1.156 5.334 4.331 4.331 0 0 0 5.759 2.186l7.026-4.45a5.933 5.933 0 0 1 5.02 0l7.025 4.453a4.336 4.336 0 0 0 5.765-2.2 14.28 14.28 0 0 0 1.149-5.616z" data-name="Path 7" style="fill:#c5c8fb;fill-opacity:1"/><path fill="#e0e0e0" d="m36.06 36.25725-13.7-6.344a5.453 5.453 0 0 0-4.585 0l-13.7 6.344a3.277 3.277 0 0 0-1.631 2.864 7.624 7.624 0 0 0 4.319 6.933c3.906 1.831 8.005.611 8.917-.551a2.841 2.841 0 0 1 2.29-.814h4.2a2.837 2.837 0 0 1 2.29.814c.912 1.162 5.011 2.382 8.917.551a7.623 7.623 0 0 0 4.319-6.933 3.277 3.277 0 0 0-1.636-2.864z" data-name="Path 15" style="fill:#aeaff7;fill-opacity:1"/><path d="M18.796875 37.599609a1.632 1.632 0 0 0-1.501953.990235 4.8 4.8 0 0 1-5.535156 2.822265c-1.9149985-.487999-4.1208298-.52731-5.4238285 1.179688a2.172 2.172 0 0 0-.4257813 1.541015 2.762 2.762 0 0 0 1.9199219 2.316407c3.3059969 1.099999 6.5327199.223093 7.6367189-.753907a4.39 4.39 0 0 1 2.5-1.037109h2.099609v-.001953h2.035156a4.39 4.39 0 0 1 2.5 1.039062c1.138999 1.007999 4.536223 1.90953 7.949219.644532a2.409 2.409 0 0 0 1.482422-1.564453 2.376 2.376 0 0 0-.298828-2.183594c-1.302999-1.706998-3.50883-1.667687-5.423828-1.179688a4.8 4.8 0 0 1-5.535156-2.822265 1.631 1.631 0 0 0-1.5-.990235h-2.478516z" style="fill:#6166ef;fill-opacity:1"/><path d="M3.6191406 14.099609v2.34961H36.519531v-2.34961zM7.1445312 17.625c-.2499112 1.185334-.068448 2.420947.5117188 3.484375.3794734.826739 1.1998246 1.362246 2.109375 1.376953 2.629976-.009 5.052211-1.678235 7.367187-4.199219.221469-.255049.04664-.652811-.291015-.662109zm16.1523438 0c-.339468.0061-.517457.405684-.294922.662109 2.314984 2.520984 4.737204 4.190219 7.367188 4.199219.90955-.01471 1.729902-.550214 2.109375-1.376953.580166-1.063428.761629-2.299042.511718-3.484375zm-3.228516 8.292969c-1.374417.000104-2.704621.485701-3.755859 1.371093l-8.6347656 7.269532 10.0976566-4.675782c1.453795-.673431 3.130189-.673431 4.583984 0l10.089844 4.671876-8.625-7.265626c-1.051238-.885392-2.381443-1.370989-3.75586-1.371093zm-.58789 12.857422c-.323895.0011-.585879.263993-.585938.58789V40.375c-.03672-.244618-.246782-.425622-.49414-.425781h-.181641c-.276142 0-.5.223858-.5.5v1.263672c-.00006-.324658-.263233-.587831-.587891-.587891-.323895.0011-.585879.263994-.585937.587891V44.0625c.000058.323897.262042.586755.585937.587891.324658-.00006.587831-.263233.587891-.587891v1.261719c0 .276142.223858.5.5.5h.177734c.256722.000325.471974-.193824.498047-.449219v1.037109c.000058.323897.262043.586755.585938.587891.324658-.000061.58783-.263233.58789-.587891.00006.324658.263233.587831.587891.587891.324658-.00006.587831-.263233.587891-.587891v-1.080078c.0043.273087.22688.492221.5.492188h.18164c.276142 0 .5-.223858.5-.5v-1.205078c.02902.299386.279301.528601.580078.53125.324658-.00006.587831-.263233.587891-.587891v-2.349609c-.00006-.324658-.263233-.587831-.587891-.587891-.300777.0026-.551059.231864-.580078.53125v-1.207031c0-.276142-.223858-.5-.5-.5h-.18164c-.276142 0-.5.223858-.5.5v-1.085938c-.000061-.324658-.263233-.58783-.587891-.58789-.324658.00006-.58783.263232-.587891.58789-.000061-.324658-.263232-.587829-.58789-.58789zm-9.6113284 2.355468c-.3110646-.007208-.6222712.005841-.9316406.039063l.5566406 3.478516 1.7617184-1.173829 1.763672 1.175782.492188-3.146485c-.585772.08418-1.182381.05232-1.75586-.09375-.165996-.042-.335-.07438-.5-.109375v.002c-.455538-.102398-.919985-.159916-1.3867184-.171922Zm20.3359374 0c-.466733.01197-.931183.06954-1.386719.171875-.0013 1.172184.03484.01161-.0059-.002-.165.035-.334.06737-.5.109375-.571601.145299-1.166148.17715-1.75.09375l.492188 3.146485 3.525431-.002.556641-3.478516c-.309369-.03324-.620575-.04628-.931641-.03906z" style="fill:#0e138c;fill-opacity:1"/><path d="M20.1875 25.931641c-.118317-.00242-.237059-.000904-.355469.003906-.315104.01295-.628638.05149-.9375.115234v3.484375a5.453 5.453 0 0 1 2.34961 0v-3.484375c-.348191-.071827-.701689-.111882-1.056641-.11914zm-3.642578 1.195312c-.075.057-.160375.100114-.234375.162109l-2.117188 1.783204v2.5l2.351563-1.087891v-3.357422zm7.048828 0v3.359375l2.349609 1.087891v-2.501953l-2.117187-1.783204c-.074-.061998-.155422-.100109-.232422-.162109zM11.255859 43.474609c-.973473.000104-1.7623663.526615-1.7617184 1.175782.0009698.648403.7893894 1.173725 1.7617184 1.173828.972329-.000103 1.760749-.525425 1.761719-1.173828.000648-.649167-.788246-1.175679-1.761719-1.175782zm17.560547 0c-.973473.000104-1.762366.526615-1.761718 1.175782.000969.648402.789389 1.173725 1.761718 1.173828.972329-.000103 1.760749-.525425 1.761719-1.173828.000648-.649167-.788246-1.175679-1.761719-1.175782z" style="fill:#1720e0;fill-opacity:1"/></svg>