<svg id="logo" xmlns="http://www.w3.org/2000/svg"
     xmlns:xlink="http://www.w3.org/1999/xlink"
     viewBox="0 0 37.254041 14.087515">
    <defs>
        <linearGradient id="a">
            <stop offset="0" style="stop-color:#c358f8;"/>
            <stop offset="1" style="stop-color:#7835ff;"/>
        </linearGradient>
        <linearGradient id="b">
            <stop offset="0" style="stop-color:#b550fa;"/>
            <stop offset="1" style="stop-color:#f2a0af;"/>
        </linearGradient>
        <linearGradient xlink:href="#a" id="c" x1="233.20833" x2="235.37132" y1="155.57195"
                        y2="159.66199"
                        gradientTransform="translate(-309.46147 -64.368588) scale(2.6006985)"
                        gradientUnits="userSpaceOnUse"/>
        <linearGradient xlink:href="#b" id="d" x1="238.32088" x2="236.35451" y1="154.0775"
                        y2="159.46535"
                        gradientTransform="translate(-314.07197 -64.368588) scale(2.6006985)"
                        gradientUnits="userSpaceOnUse"/>
    </defs>
    <path id="logotype"
          d="M502.94017 333.94529c-.25038 0-.46504.0894-.64388.2682-.17884.17169-.26821.38265-.26821.63304 0 .25038.0894.46504.26821.64389.17884.17884.3935.2682.64388.2682s.46135-.0894.63304-.2682c.17884-.17885.2682-.39351.2682-.64389 0-.25039-.0894-.46135-.2682-.63304-.17169-.17884-.38266-.2682-.63304-.2682zm-13.50977.20362v7.68324h1.4056v-1.69551l.70797-.69763 1.4919 2.39314h1.66295v-.0858l-2.16731-3.27267 2.07067-2.0283v-.0858h-1.72754l-1.96371 1.97456h-.0749v-4.18527zm5.99809 0v7.68324h1.32033v-.65474h.0858c.14308.23607.35722.43327.64337.59066.2933.15738.62639.23564.99839.23564.49362 0 .94039-.1216 1.34101-.36482.40776-.25039.72606-.59353.95498-1.02991.22892-.44354.34365-.94794.34365-1.51309 0-.55799-.11473-1.0587-.34365-1.50223-.22892-.44354-.54722-.7872-.95498-1.03043-.40062-.25038-.84739-.37517-1.34101-.37517-.372 0-.70139.082-.98753.2465-.28616.15738-.50399.35407-.65423.59014h-.0858l.0858-.77256v-2.10323zm12.75891 2.03915c-.35054 0-.67623.0783-.97669.23563-.30045.15024-.53257.35803-.69711.62271h-.0858v-.68678h-1.31982v5.47253h1.4056v-2.79001c0-.44353.11421-.81205.34313-1.10536.23607-.29331.54379-.43977.92294-.43977.32192 0 .57253.0967.75138.28991.17884.19315.2682.46492.2682.81545v3.22978h1.4056v-3.40134c0-.69392-.17184-1.24167-.51522-1.64228-.34338-.40061-.84409-.60048-1.50223-.60048zm-5.95571.17156v5.47253h1.40612v-5.47253zm-4.00234 1.1374c.26469 0 .5116.0682.74052.20412.22893.12878.41134.31437.54726.55759.13592.24322.2036.52238.2036.83715 0 .31478-.0677.59393-.2036.83716-.13592.24323-.31833.43251-.54726.56844-.22892.13592-.47583.20412-.74052.20412-.25753 0-.50075-.0682-.72967-.20412-.22893-.13592-.41133-.32521-.54725-.56844-.13592-.24323-.20413-.52238-.20413-.83716 0-.31477.0682-.59393.20413-.83715.13592-.24322.31832-.42881.54725-.55759.22892-.13592.47214-.20412.72967-.20412z"
          transform="translate(-472.95079 -330.24268)" fill="#fff"/>
    <path d="m299.26986 340.21968-1.80765.0156c-.76275 0-1.01372.47801-.82928 1.16637l1.66575 7.39987c.36633 1.36713.61077 1.61409.86218 1.61409h.4816c.95399 0 1.29122-.5716 1.66262-1.61409l2.63358-7.39987h-3.46788c-.24707-.55343-.3319-1.18116-1.2009-1.18116z"
          style="fill:url(#c);" transform="translate(-296.57504 -336.328095)"/>
    <path d="M305.0717 336.3281h4.24484c.34061 0 1.0467.19401.76772 1.00712l-3.52485 11.82491c-.36447 1.02202-.69821 1.2546-1.76988 1.2546h-5.62867c.29255 0 .60276-.5707.9742-1.61321l3.35165-11.3397c.24498-.65062.57101-1.13372 1.58499-1.13372z"
          style="fill:url(#d)" transform="translate(-296.57504 -336.328095)"/>
</svg>