<?xml version="1.0" encoding="UTF-8" standalone="no"?>
<svg
   viewBox="0 0 1024 1024"
   version="1.1"
   id="svg13249"
   sodipodi:docname="icon-1024x1024xxxx.svg"
   xml:space="preserve"
   inkscape:version="1.2 (dc2aedaf03, 2022-05-15)"
   xmlns:inkscape="http://www.inkscape.org/namespaces/inkscape"
   xmlns:sodipodi="http://sodipodi.sourceforge.net/DTD/sodipodi-0.dtd"
   xmlns:xlink="http://www.w3.org/1999/xlink"
   xmlns="http://www.w3.org/2000/svg"
   xmlns:svg="http://www.w3.org/2000/svg"><defs
     id="defs13253"><linearGradient
       id="a"><stop
         offset="0"
         style="stop-color:#c358f8;stop-opacity:1"
         id="stop13372" /><stop
         offset="1"
         style="stop-color:#7835ff;stop-opacity:1"
         id="stop13374" /></linearGradient><linearGradient
       id="b"><stop
         offset="0"
         style="stop-color:#b550fa;stop-opacity:1"
         id="stop13377" /><stop
         offset="1"
         style="stop-color:#f2a0af;stop-opacity:1"
         id="stop13379" /></linearGradient><linearGradient
       xlink:href="#a"
       id="c"
       x1="233.208"
       x2="235.371"
       y1="155.572"
       y2="159.662"
       gradientTransform="translate(-19.216,42.773)"
       gradientUnits="userSpaceOnUse" /><linearGradient
       xlink:href="#b"
       id="d"
       x1="238.321"
       x2="236.355"
       y1="154.077"
       y2="159.465"
       gradientTransform="translate(-20.99,42.773)"
       gradientUnits="userSpaceOnUse" /><linearGradient
       xlink:href="#a"
       id="c-0"
       x1="233.20799"
       x2="235.371"
       y1="155.57201"
       y2="159.662"
       gradientTransform="translate(-19.216,42.773)"
       gradientUnits="userSpaceOnUse" /><linearGradient
       xlink:href="#b"
       id="d-6"
       x1="238.321"
       x2="236.355"
       y1="154.077"
       y2="159.465"
       gradientTransform="translate(-20.99,42.773)"
       gradientUnits="userSpaceOnUse" /><linearGradient
       xlink:href="#a"
       id="c-2"
       x1="233.20799"
       x2="235.371"
       y1="155.57201"
       y2="159.662"
       gradientTransform="translate(-19.216,42.773)"
       gradientUnits="userSpaceOnUse" /><linearGradient
       xlink:href="#b"
       id="d-7"
       x1="238.321"
       x2="236.355"
       y1="154.077"
       y2="159.465"
       gradientTransform="translate(-20.99,42.773)"
       gradientUnits="userSpaceOnUse" /><linearGradient
       xlink:href="#a"
       id="c-2-0"
       x1="233.20799"
       x2="235.371"
       y1="155.57201"
       y2="159.662"
       gradientTransform="translate(-19.216,42.773)"
       gradientUnits="userSpaceOnUse" /><linearGradient
       xlink:href="#b"
       id="d-7-4"
       x1="238.321"
       x2="236.355"
       y1="154.077"
       y2="159.465"
       gradientTransform="translate(-20.99,42.773)"
       gradientUnits="userSpaceOnUse" /><linearGradient
       xlink:href="#a"
       id="c-2-0-9"
       x1="233.20799"
       x2="235.371"
       y1="155.57201"
       y2="159.662"
       gradientTransform="translate(-19.216,42.773)"
       gradientUnits="userSpaceOnUse" /><linearGradient
       xlink:href="#b"
       id="d-7-4-9"
       x1="238.321"
       x2="236.355"
       y1="154.077"
       y2="159.465"
       gradientTransform="translate(-20.99,42.773)"
       gradientUnits="userSpaceOnUse" /></defs><sodipodi:namedview
     id="namedview13251"
     pagecolor="#ffffff"
     bordercolor="#000000"
     borderopacity="0.25"
     inkscape:showpageshadow="2"
     inkscape:pageopacity="0.0"
     inkscape:pagecheckerboard="0"
     inkscape:deskcolor="#d1d1d1"
     showgrid="false"
     inkscape:zoom="0.32593203"
     inkscape:cx="869.81325"
     inkscape:cy="-85.907482"
     inkscape:window-width="4608"
     inkscape:window-height="2486"
     inkscape:window-x="4597"
     inkscape:window-y="-11"
     inkscape:window-maximized="1"
     inkscape:current-layer="svg13249" /><rect
     width="1024"
     height="1024"
     fill="#fff"
     rx="128"
     ry="128"
     id="rect13245"
     style="fill:#100045;fill-opacity:1"
     inkscape:export-filename="rect13245.png"
     inkscape:export-xdpi="96"
     inkscape:export-ydpi="96" /><g
     id="g13404"
     transform="matrix(60.470246,0,0,60.470094,256.0927,256.05818)"><path
       d="m 214.848,198.342 -0.695,0.006 c -0.293,0 -0.39,0.184 -0.319,0.449 l 0.64,2.845 c 0.142,0.526 0.236,0.62 0.332,0.62 h 0.186 c 0.366,0 0.496,-0.22 0.639,-0.62 l 1.012,-2.845 h -1.333 c -0.095,-0.213 -0.128,-0.454 -0.462,-0.454 z"
       style="fill:url(#c);fill-opacity:1;stroke:none;stroke-width:0.0964889"
       transform="matrix(1.62214,0,0,1.56333,-346.83413,-307.73623)"
       id="path13386" /><path
       d="m 217.08,196.846 h 1.631 c 0.131,0 0.403,0.074 0.296,0.387 l -1.356,4.547 c -0.14,0.393 -0.268,0.482 -0.68,0.482 h -2.165 c 0.113,0 0.232,-0.22 0.375,-0.62 l 1.289,-4.36 c 0.094,-0.25 0.22,-0.436 0.61,-0.436 z"
       style="fill:url(#d);fill-opacity:1;stroke:none;stroke-width:0.0964889"
       transform="matrix(1.62214,0,0,1.56333,-346.83413,-307.73623)"
       id="path13388" /></g></svg>
